#!OML:ASF I:\Actors\actors\Patient Classification 2\Patient 1\Session 1\actor1.ASF
:FULLY-SPECIFIED
:DEGREES
476
root -0.68946 18.6467 6.0817 11.2036 -6.75224 -2.99855
lowerback 11.5657 -0.852318 0.171249
upperback 0.921474 -1.06483 0.7884
thorax -5.51022 -0.519211 0.900543
lowerneck 0.520366 -5.91634 -4.15946
upperneck 5.96901 -8.01807 3.35491
head 2.12713 -4.01629 1.61997
rclavicle 2.73329e-014 -2.46493e-014
rhumerus -82.8277 -4.95315 -90.2195
rradius 110.052
rwrist -0.340616
rhand 3.73773 -31.9084
rfingers 7.12502
rthumb 29.1653 -59.6436
lclavicle 2.73329e-014 -2.46493e-014
lhumerus -83.4672 -12.2756 103.667
lradius 109.252
lwrist 15.007
lhand -15.0129 -23.6993
lfingers 7.12502
lthumb 11.1523 5.98436
rfemur -7.70518 4.51306 15.6416
rtibia 8.07035
rfoot -17.778 -9.91017
rtoes -11.364
lfemur -19.7629 8.94801 -11.0482
ltibia 32.307
lfoot -18.7841 2.39266
ltoes -58.1545
477
root -0.723832 18.6343 6.05885 11.2257 -6.42492 -2.84105
lowerback 11.6434 -0.91906 0.525871
upperback 1.06983 -1.09927 0.941297
thorax -5.4007 -0.543118 0.865742
lowerneck 1.15935 -5.94537 -4.30687
upperneck 5.16517 -8.04723 3.08692
head 1.74701 -4.04301 1.58813
rclavicle 1.87852e-014 -9.34288e-015
rhumerus -82.8366 -5.94637 -90.1578
rradius 110.067
rwrist -0.227285
rhand 2.42979 -31.1121
rfingers 7.12502
rthumb 27.9155 -59.0572
lclavicle 1.87852e-014 -9.34288e-015
lhumerus -83.1941 -12.1819 103.79
lradius 109.053
lwrist 15.0183
lhand -15.3325 -24.028
lfingers 7.12502
lthumb 10.844 5.67206
rfemur -8.35467 4.47738 15.6422
rtibia 9.27996
rfoot -18.4681 -9.78832
rtoes -12.0256
lfemur -20.3429 9.14651 -11.056
ltibia 32.9512
lfoot -18.3722 1.8916
ltoes -58.3451
478
root -0.755701 18.6234 6.03054 11.2451 -6.03994 -2.68645
lowerback 11.6463 -1.02462 0.830072
upperback 1.32408 -1.19144 1.15007
thorax -5.13599 -0.593491 0.923793
lowerneck 1.10846 -5.99492 -4.46813
upperneck 4.73391 -8.08848 2.75779
head 1.60929 -4.06924 1.51395
rclavicle -5.76476e-015 4.47266e-015
rhumerus -82.7663 -5.50229 -90.6088
rradius 110.027
rwrist -0.32979
rhand 0.60517 -29.719
rfingers 7.12502
rthumb 26.1699 -57.9352
lclavicle -5.76476e-015 4.47266e-015
lhumerus -82.9188 -12.7653 104.081
lradius 108.833
lwrist 15.0397
lhand -15.4041 -24.0019
lfingers 7.12502
lthumb 10.775 5.70174
rfemur -8.92909 4.36829 15.6493
rtibia 10.3194
rfoot -19.0721 -9.76415
rtoes -12.5012
lfemur -20.9284 9.25145 -11.0695
ltibia 33.5369
lfoot -17.9548 1.5446
ltoes -58.5835
479
root -0.788137 18.6141 5.99525 11.2906 -5.59742 -2.54006
lowerback 11.7565 -1.1302 1.13275
upperback 1.50696 -1.28188 1.35856
thorax -5.00634 -0.642103 0.985246
lowerneck 0.612639 -6.11821 -4.56557
upperneck 4.60111 -8.21649 2.43831
head 1.64593 -4.13496 1.41232
rclavicle -1.15544e-014 -2.4699e-014
rhumerus -82.8666 -3.94514 -91.377
rradius 110.018
rwrist -0.571592
rhand 0.121794 -29.9724
rfingers 7.12502
rthumb 25.707 -58.2563
lclavicle -1.15544e-014 -2.4699e-014
lhumerus -82.9312 -14.1618 104.639
lradius 108.524
lwrist 15.2228
lhand -15.4103 -24.3721
lfingers 7.12502
lthumb 10.769 5.33183
rfemur -9.41127 4.1657 15.6877
rtibia 11.1064
rfoot -19.5397 -9.76237
rtoes -12.5334
lfemur -21.5105 9.29418 -11.094
ltibia 33.9919
lfoot -17.5457 1.4684
ltoes -58.9366
480
root -0.812279 18.6099 5.98277 11.1915 -5.42714 -2.52347
lowerback 11.7958 -1.15411 1.59943
upperback 1.71631 -1.24928 1.50966
thorax -4.81528 -0.63305 0.87266
lowerneck -0.0735088 -6.29786 -4.47403
upperneck 4.66537 -8.41003 2.0072
head 1.7662 -4.23264 1.23272
rclavicle -5.93869e-015 3.49364e-014
rhumerus -83.1471 -1.5711 -92.3733
rradius 110.025
rwrist -1.23896
rhand -0.0405936 -30.6318
rfingers 7.12502
rthumb 25.5515 -58.9381
lclavicle -5.93869e-015 3.49364e-014
lhumerus -83.2776 -16.2109 105.432
lradius 108.231
lwrist 15.4326
lhand -15.3504 -24.7984
lfingers 7.12502
lthumb 10.8268 4.90257
rfemur -9.58093 4.11439 15.7806
rtibia 11.624
rfoot -19.8544 -9.6624
rtoes -12.1427
lfemur -21.65 9.18115 -11.0407
ltibia 34.2439
lfoot -17.4364 1.90958
ltoes -59.1421
481
root -0.840641 18.6091 5.9713 11.199 -5.26028 -2.54734
lowerback 11.7285 -1.16404 1.97237
upperback 1.85292 -1.21047 1.70969
thorax -4.63822 -0.618127 0.861871
lowerneck -0.953832 -6.5054 -4.44289
upperneck 4.94728 -8.63239 1.59489
head 1.99665 -4.34744 1.05764
rclavicle 7.65321e-015 -3.8763e-015
rhumerus -83.4361 1.3132 -92.9344
rradius 110.264
rwrist -0.414674
rhand 2.67996 -30.7942
rfingers 7.12502
rthumb 28.1547 -58.7002
lclavicle 7.65321e-015 -3.8763e-015
lhumerus -83.8251 -18.5504 106.457
lradius 108.063
lwrist 15.425
lhand -15.3323 -24.6514
lfingers 7.12502
lthumb 10.8442 5.04859
rfemur -9.69564 4.11633 15.9232
rtibia 11.8324
rfoot -20.0784 -9.7221
rtoes -11.9732
lfemur -21.7745 9.0484 -10.9546
ltibia 34.2699
lfoot -17.4252 2.30407
ltoes -59.0893
482
root -0.868697 18.6095 5.96202 11.2341 -5.13056 -2.61742
lowerback 11.6727 -1.1241 2.37599
upperback 1.92462 -1.09936 1.95067
thorax -4.535 -0.567619 0.866963
lowerneck -2.05888 -6.78138 -4.53941
upperneck 5.45869 -8.93215 1.25084
head 2.35882 -4.50446 0.908007
rclavicle 1.88845e-015 3.27995e-014
rhumerus -83.8114 4.51705 -93.708
rradius 110.364
rwrist -1.19359
rhand 2.3391 -29.5337
rfingers 7.12502
rthumb 27.8288 -57.4928
lclavicle 1.88845e-015 3.27995e-014
lhumerus -84.5505 -20.9852 107.703
lradius 107.872
lwrist 15.3034
lhand -15.4512 -24.5395
lfingers 7.12502
lthumb 10.7295 5.16648
rfemur -9.68306 4.04352 16.1126
rtibia 11.7497
rfoot -20.0651 -9.78031
rtoes -12.3497
lfemur -21.7658 8.83871 -10.8496
ltibia 34.0667
lfoot -17.5915 2.76674
ltoes -59.0212
